<?xml version="1.0" encoding="UTF-8"?>
<svg width="112px" height="56px" viewBox="0 0 112 56" version="1.1" xmlns="http://www.w3.org/2000/svg" xmlns:xlink="http://www.w3.org/1999/xlink">
    <!-- Generator: Sketch 64 (93537) - https://sketch.com -->
    <title>Convex Logo</title>
    <desc>Created with Sketch.</desc>
    <g id="Convex-Logo" stroke="#fff" stroke-width="1" fill="#fff" fill-rule="evenodd">
        <path d="M11,8 L42.6126519,12.0909377 L51.8328259,28.5301205 L19.1761757,49 L11,8 Z M11.661,8.749 L19.474,47.931 L36.499,21.205 L11.661,8.749 Z M36.951,21.432 L20.161,47.787 L50.982,28.468 L36.951,21.432 Z M60.5070866,24.1521971 C62.3755267,24.1521971 63.6713803,25.0186168 63.8421517,26.9227252 L63.8421517,26.9227252 L61.7225772,26.9227252 C61.6422142,26.1872759 61.2403991,25.78429 60.517132,25.78429 C59.5929573,25.78429 59.0103255,26.5096647 59.0103255,27.8193688 L59.0103255,27.8193688 L59.0103255,27.899966 C59.0103255,29.1995956 59.5628212,29.9350448 60.5472681,29.9350448 C61.2705352,29.9350448 61.7828494,29.5522082 61.8833032,28.7563111 L61.8833032,28.7563111 L63.93256,28.7563111 C63.7919248,30.6201209 62.4458443,31.587287 60.5874496,31.587287 C58.0761054,31.587287 56.8405241,30.1163885 56.8405241,27.9100407 L56.8405241,27.9100407 L56.8405241,27.8294435 C56.8405241,25.613021 58.4076029,24.1521971 60.5070866,24.1521971 Z M68.252072,24.1622718 C70.4419641,24.1622718 72.0592698,25.5424985 72.0592698,27.7790702 L72.0592698,27.7790702 L72.0592698,27.8596674 C72.0592698,30.0760899 70.5424179,31.587287 68.2219359,31.587287 C65.9014539,31.587287 64.4549196,30.0760899 64.4549196,27.9100407 L64.4549196,27.9100407 L64.4549196,27.8294435 C64.4549196,25.6331703 66.1023614,24.1622718 68.252072,24.1622718 Z M75.3842895,24.2630183 L77.6846807,28.3231012 L77.6846807,24.2630183 L79.4828032,24.2630183 L79.4828032,31.4663912 L77.4938186,31.4663912 L74.8719753,26.9428745 L74.8719753,31.4663912 L73.0638075,31.4663912 L73.0638075,24.2630183 L75.3842895,24.2630183 Z M82.5165069,24.2630183 L83.9730865,29.3204913 L85.4397115,24.2630183 L87.3684238,24.2630183 L85.0178057,31.4663912 L82.6772329,31.4663912 L80.2964787,24.2630183 L82.5165069,24.2630183 Z M93.1445154,24.2630183 L93.1445154,25.8548126 L90.2313562,25.8548126 L90.2313562,27.0939942 L92.5518382,27.0939942 L92.5518382,28.5648928 L90.2313562,28.5648928 L90.2313562,29.8745969 L93.3052415,29.8745969 L93.3052415,31.4663912 L88.1820994,31.4663912 L88.1820994,24.2630183 L93.1445154,24.2630183 Z M96.3690814,24.2630183 L97.4941635,26.4089182 L98.599155,24.2630183 L100.708684,24.2630183 L98.7799718,27.6883984 L101,31.4663912 L98.6493819,31.4663912 L97.3133468,28.988028 L95.9773117,31.4663912 L93.8577372,31.4663912 L96.0777654,27.758921 L94.0285086,24.2630183 L96.3690814,24.2630183 Z M68.252072,25.7742154 C67.237489,25.7742154 66.6046302,26.5096647 66.6046302,27.8193688 L66.6046302,27.8193688 L66.6046302,27.899966 C66.6046302,29.2096702 67.2676251,29.9652688 68.2621174,29.9652688 C69.2767004,29.9652688 69.9095592,29.1794463 69.9095592,27.8898914 L69.9095592,27.8898914 L69.9095592,27.8092942 C69.9095592,26.529814 69.2666551,25.7742154 68.252072,25.7742154 Z M42.441,12.814 L37.224,21.005 L50.875,27.85 L42.441,12.814 Z M12.749,8.732 L36.771,20.778 L42.03,12.522 L12.749,8.732 Z" fill="#fff" fill-rule="nonzero"></path>
    </g>
</svg>
