<svg id="Layer_1" data-name="Layer 1" xmlns="http://www.w3.org/2000/svg" viewBox="0 0 333.4 53.9">
  <defs>
    <style>
      .cls-1 {
        fill: #fff;
      }

      .cls-2 {
        fill: #fff;
      }
    </style>
  </defs>
  <title>Dell_Medical_School_Logo</title>
  <g>
    <g>
      <polygon class="cls-1" points="20.9 18 21 18 21 18 20.9 18 20.9 18"/>
      <path class="cls-1" d="M26.4,13.5a18.1644,18.1644,0,0,0-3.2-.3c-.5,0-1,.1-1.4.1l-.2-6.4v-1a3.9846,3.9846,0,0,1,1.7-.3,16.9009,16.9009,0,0,1,3,.3,25.821,25.821,0,0,0,2.9.3l.3,7.6a15.5259,15.5259,0,0,1-3.1-.3Zm-10.9,0a29.0923,29.0923,0,0,1-3.1.4l.3-7.6c1-.1,2-.2,2.9-.3a16.9009,16.9009,0,0,1,3-.3,4.31,4.31,0,0,1,1.7.3V7.1l-.2,6.4a6.15,6.15,0,0,0-1.4-.1,8.7342,8.7342,0,0,0-3.2.1ZM31.7,9V7.6h-.9V5.1h-.6a24.5047,24.5047,0,0,1-3.8-.4,18.1645,18.1645,0,0,0-3.2-.3,5.27,5.27,0,0,0-2.3.4,5.27,5.27,0,0,0-2.3-.4c-1,0-2,.2-3.2.3a23.2782,23.2782,0,0,1-3.8.4H11V7.6h-.9V9H11v2h-.9v1.4H11v2.7h.6a25.8124,25.8124,0,0,0,4-.4,16.9008,16.9008,0,0,1,3-.3,4.31,4.31,0,0,1,1.7.3h1.2a3.6894,3.6894,0,0,1,1.7-.3c.9,0,1.9.2,3,.3a25.8121,25.8121,0,0,0,4,.4h.6V12.4h.9V11h-.9V9Z"/>
      <path class="cls-1" d="M15.7,7h-.2a9.8524,9.8524,0,0,1-1.7.2v1c.6-.1,1.3-.2,1.9-.3h0V7Z"/>
      <path class="cls-1" d="M16.4,6.9v1c1-.1,2-.2,2.8-.2v-1c-.8,0-1.8.1-2.8.2Z"/>
      <path class="cls-1" d="M15.7,11.4h-.2c-.6.1-1.2.2-1.9.3v1l2.1-.3h0v-1Z"/>
      <path class="cls-1" d="M16.4,11.3v1c1-.1,1.8-.2,2.6-.2v-1a24.6223,24.6223,0,0,0-2.6.2Z"/>
      <path class="cls-1" d="M15.5,9.2v1h.1a15.031,15.031,0,0,1,3.5-.3v-1c-1.1,0-2.3.2-3.6.3Z"/>
      <path class="cls-1" d="M14.8,9.3a4.1019,4.1019,0,0,1-1.1.1v1c.4,0,.8-.1,1.1-.1v-1Z"/>
      <path class="cls-1" d="M25,6.9a9.6624,9.6624,0,0,0-2.4-.1v1a9.0635,9.0635,0,0,1,2.3.1v-1Z"/>
      <path class="cls-1" d="M28.1,7.3a11.1353,11.1353,0,0,0-1.7-.2c-.2,0-.4-.1-.6-.1V8a.9015.9015,0,0,1,.5.1c.6.1,1.3.2,1.9.3l-.1-1.1Z"/>
      <path class="cls-1" d="M24.8,9a14.7687,14.7687,0,0,0-2.1-.1v1a16.2329,16.2329,0,0,1,2.1.1V9Z"/>
      <path class="cls-1" d="M28.2,9.5a11.019,11.019,0,0,0-1.8-.2c-.3,0-.5-.1-.8-.1v1c.2,0,.4.1.7.1.6.1,1.3.2,2,.3l-.1-1.1Z"/>
      <path class="cls-1" d="M26.3,12.4c.7.1,1.3.2,2,.3v-1c-.6-.1-1.3-.2-1.9-.3h-.1v1Z"/>
      <path class="cls-1" d="M25.6,11.3c-1-.1-1.9-.2-2.7-.2v1c.8,0,1.7.1,2.7.2v-1Z"/>
      <path class="cls-1" d="M19.7,26.9,21,23.8l1.3,3.1,3.4.2-2.6,2.2.8,3.3L21,30.8l-2.9,1.8.8-3.3-2.6-2.2,3.4-.2Zm-7.6-1.1h0l5.4,4-2.1,6.5h0l5.5-4,5.5,4h0v-.1l-2.1-6.4,5.4-4h0v-.1H22.9l-2.1-6.4h0l-2.1,6.4-6.6.1h0c0-.1-.1-.1,0,0-.1-.1-.1,0,0,0Z"/>
      <path class="cls-1" d="M34.5,33.9A4.1846,4.1846,0,0,1,32.7,35a3.379,3.379,0,0,1,.9-1.9A4.1846,4.1846,0,0,1,35.4,32a4.1288,4.1288,0,0,1-.9,1.9Zm-2.7-4.3a3.0832,3.0832,0,0,1,.4-2.1,3.379,3.379,0,0,1,.9,1.9,3.0832,3.0832,0,0,1-.4,2.1,3.0955,3.0955,0,0,1-.9-1.9Zm1.5-5.5a3.7133,3.7133,0,0,1,.2-2.1,3.5206,3.5206,0,0,1,1,1.9,3.7133,3.7133,0,0,1-.2,2.1,3.5207,3.5207,0,0,1-1-1.9Zm3.5,1.6a3.28,3.28,0,0,1-.5,2.1,3.6382,3.6382,0,0,1-1.6,1.4,3.28,3.28,0,0,1,.5-2.1,3.6381,3.6381,0,0,1,1.6-1.4ZM31.4,39.4a3.7216,3.7216,0,0,1-2,.7,3.1472,3.1472,0,0,1,1.3-1.7,3.7216,3.7216,0,0,1,2-.7,3.1472,3.1472,0,0,1-1.3,1.7Zm-1.7-4.7a3.8611,3.8611,0,0,1,.8-2,3.5664,3.5664,0,0,1-.3,4.1,3.6446,3.6446,0,0,1-.5-2.1Zm-1.9,4.9a3.5974,3.5974,0,0,1-1.2,1.8,3.75,3.75,0,0,1,0-2.1,3.5974,3.5974,0,0,1,1.2-1.8,3.75,3.75,0,0,1,0,2.1Zm1.1,3.2a3.6382,3.6382,0,0,1-1.6,1.4,4.0125,4.0125,0,0,1-1.5.3h0a1.2684,1.2684,0,0,1-.6-.1A3.6382,3.6382,0,0,1,26.8,43a5.0223,5.0223,0,0,1,2.1-.2Zm-6.3.3a4.3064,4.3064,0,0,1,1.5-1.5,3.9479,3.9479,0,0,1-.4,2.1,3.6151,3.6151,0,0,1-1.5,1.5,4.9182,4.9182,0,0,1,.4-2.1Zm-8.1,1.1a3.6381,3.6381,0,0,1-1.6-1.4,3.8609,3.8609,0,0,1,2.1.3,3.6381,3.6381,0,0,1,1.6,1.4,3.8609,3.8609,0,0,1-2.1-.3ZM14,39.6a3.75,3.75,0,0,1,0-2.1,3.5974,3.5974,0,0,1,1.2,1.8,3.75,3.75,0,0,1,0,2.1A3.2181,3.2181,0,0,1,14,39.6Zm3.7,2a3.6151,3.6151,0,0,1,1.5,1.5,3.7775,3.7775,0,0,1,.4,2.1,3.6151,3.6151,0,0,1-1.5-1.5,3.19,3.19,0,0,1-.4-2.1Zm-7.3-2.2a3.7077,3.7077,0,0,1-1.3-1.7,3.7156,3.7156,0,0,1,3.3,2.4,3.7217,3.7217,0,0,1-2-.7Zm.9-6.7a3.8612,3.8612,0,0,1,.8,2,3.1438,3.1438,0,0,1-.5,2.1,3.8612,3.8612,0,0,1-.8-2,5.3742,5.3742,0,0,1,.5-2.1ZM7.4,33.9A3.379,3.379,0,0,1,6.5,32a3.4118,3.4118,0,0,1,1.8,1.1A3.379,3.379,0,0,1,9.2,35a4.1847,4.1847,0,0,1-1.8-1.1Zm-.3-4.7a4.2806,4.2806,0,0,1-1.6-1.4A3.8449,3.8449,0,0,1,5,25.7a3.6382,3.6382,0,0,1,1.6,1.4,3.28,3.28,0,0,1,.5,2.1Zm.2-5.3a3.5206,3.5206,0,0,1,1-1.9,3.0726,3.0726,0,0,1,.2,2.1,3.5206,3.5206,0,0,1-1,1.9,3.7991,3.7991,0,0,1-.2-2.1Zm1.5,5.6a3.379,3.379,0,0,1,.9-1.9,3.7775,3.7775,0,0,1,.4,2.1,3.379,3.379,0,0,1-.9,1.9,3.19,3.19,0,0,1-.4-2.1Zm25.7.9a4.6984,4.6984,0,0,0,2.7-2.1,4.2733,4.2733,0,0,0,.5-3.3l-.2-.5-.5.1a4.3515,4.3515,0,0,0-1.5.8,4.8542,4.8542,0,0,0,0-1.7,4.4593,4.4593,0,0,0-1.8-2.8l-.4-.3L33,21a4.809,4.809,0,0,0-.6,3.3,4.7378,4.7378,0,0,0,1.8,2.8,2.6626,2.6626,0,0,0-.3,1.2,5.579,5.579,0,0,0-1.4-2l-.4-.3-.3.4a4.2416,4.2416,0,0,0-.8,3.3,4.9325,4.9325,0,0,0,1.6,3h0a3.3794,3.3794,0,0,0-.6,1.2,3.7194,3.7194,0,0,0-1-2.2l-.3-.4-.4.4a4.4837,4.4837,0,0,0-.5,6.2h0a9.0162,9.0162,0,0,0-.9,1,4.1807,4.1807,0,0,0-.5-2.4l-.2-.5-.4.3A4.7875,4.7875,0,0,0,25.7,39a5.0214,5.0214,0,0,0,.3,3.4h0a3.9154,3.9154,0,0,0-1,.8,4.875,4.875,0,0,0,0-2.4l-.1-.5-.5.2a4.67,4.67,0,0,0-2.6,2.2,4.451,4.451,0,0,0-.4,3.2,2.1859,2.1859,0,0,1-.5.3c-.2-.1-.3-.2-.5-.3a4.451,4.451,0,0,0-.4-3.2,5.0973,5.0973,0,0,0-2.6-2.2l-.5-.2-.1.5a4.875,4.875,0,0,0,0,2.4,7.0062,7.0062,0,0,0-1-.8h0a4.917,4.917,0,0,0,.3-3.4A4.6984,4.6984,0,0,0,14,36.3l-.4-.3-.2.5a4.94,4.94,0,0,0-.5,2.4,2.8364,2.8364,0,0,0-.9-1h0a4.705,4.705,0,0,0,1-3.2,4.36,4.36,0,0,0-1.5-3l-.4-.4-.3.4a5.5352,5.5352,0,0,0-1,2.2,6.7208,6.7208,0,0,0-.6-1.2h0a4.27,4.27,0,0,0,1.6-3,4.8154,4.8154,0,0,0-.8-3.3L9.7,26l-.4.3a4.8309,4.8309,0,0,0-1.4,2,5.6377,5.6377,0,0,0-.4-1.2A4.5544,4.5544,0,0,0,8.7,21l-.3-.4-.4.3a4.7378,4.7378,0,0,0-1.8,2.8,4.8542,4.8542,0,0,0,0,1.7,5.4827,5.4827,0,0,0-1.5-.8l-.5-.1V25a4.2733,4.2733,0,0,0,.5,3.3,4.7875,4.7875,0,0,0,2.7,2.1l.4.1a2.2794,2.2794,0,0,0,.3,1.1A4.756,4.756,0,0,0,6,30.9H5.5v.5a4.717,4.717,0,0,0,1.2,3.2,4.571,4.571,0,0,0,3,1.5h.5a3.128,3.128,0,0,0,.5,1,4.1455,4.1455,0,0,0-1.6-.3H8.5l-.5.1.1.5a4.2123,4.2123,0,0,0,1.8,2.8,4.3877,4.3877,0,0,0,2.7.9h.6l.3-.1a5.4958,5.4958,0,0,0,.7.9,5.5,5.5,0,0,0-2.2.2l-.5.1.2.5a4.6846,4.6846,0,0,0,2.4,2.4,4.0582,4.0582,0,0,0,1.9.4,4.0125,4.0125,0,0,0,1.5-.3l.4-.1c.6.5,1.3,1,2.2,1.7-.4.3-.9.6-1.4.9l.9.6c.5-.3,1-.6,1.4-.9.4.3.9.6,1.4.9l.9-.6c-.5-.3-1-.6-1.4-.9a14.0237,14.0237,0,0,0,2.2-1.7l.4.1a4.0125,4.0125,0,0,0,1.5.3h0a4.3333,4.3333,0,0,0,1.9-.4,4.6846,4.6846,0,0,0,2.4-2.4l.2-.5-.7-.2a5.5,5.5,0,0,0-2.2-.2,5.4956,5.4956,0,0,0,.7-.9l.5.1h.6a4.3876,4.3876,0,0,0,2.7-.9,4.7378,4.7378,0,0,0,1.8-2.8l.1-.5-.5-.1h-.6a4.1455,4.1455,0,0,0-1.6.3,3.128,3.128,0,0,0,.5-1h.5a4.36,4.36,0,0,0,3-1.5,4.717,4.717,0,0,0,1.2-3.2v-.5H36a5.2243,5.2243,0,0,0-2.1.7c.1-.3.2-.7.3-1.1Z"/>
      <path class="cls-1" d="M34.6,40.6a26.2923,26.2923,0,0,1-3.5,4.1,37.3614,37.3614,0,0,1-10.2,6.5,40.1606,40.1606,0,0,1-10.2-6.5,22.3919,22.3919,0,0,1-3.5-4.1c-4.7-6.9-5.4-15-5.4-21.3h0l19-1.1,19,1.1c.2,6.3-.5,14.3-5.2,21.3ZM2.9,3.1a178.56,178.56,0,0,1,18-1.2,178.5606,178.5606,0,0,1,18,1.2l1,13.9H1.9l1-13.9Zm39-1.6-.8-.1C40.9,1.4,29.7,0,21,0h0C12.3,0,1,1.4.9,1.4L0,1.5V17H0v2.2c0,6.5.6,15,5.7,22.4a28.318,28.318,0,0,0,3.6,4.3h0c2.7,2.6,6.4,5.1,11.6,8h0a58.7694,58.7694,0,0,0,11.6-8h0a28.318,28.318,0,0,0,3.6-4.3c5.1-7.4,5.7-15.9,5.7-22.4v-.3h0V1.5Z"/>
    </g>
    <g>
      <path class="cls-2" d="M59.7,25.8l6-.1c6.1,0,9.9,3.5,9.9,9.9,0,6.5-3.4,10.3-10.2,11.1l-5.7-.1-4,.1-.1-1,2.7-.4V27.2l-2.8-.4.1-1.1Zm1.6,1.4v18l3.8.3c4.2,0,7-3.8,7-9.4,0-5-2.6-9-7.8-9Z"/>
      <path class="cls-2" d="M80.8,39.1c0,3.4,1.8,5.9,5,5.9a7.5168,7.5168,0,0,0,3.7-1.3l.5,1.1a19.1714,19.1714,0,0,1-5.2,2.4c-3.6,0-6.9-2.6-6.9-7.3,0-4.4,2.7-6.8,6.8-7.7,4,0,5.3,2.5,5.3,5.6v1.3Zm6-1.5c0-2.3-.4-3.9-2.8-3.9-1.8,0-3,1.7-3.2,4.2Z"/>
      <path class="cls-2" d="M95.1,46.7l-3.5.1-.1-1,2.1-.3V27.4H91.5l-.1-1,3.6-.9,1.5-.1V45.5l2.2.3-.1,1Z"/>
      <path class="cls-2" d="M103.2,46.7l-3.5.1-.1-1,2.1-.3V27.4l-2.1.1-.1-1,3.6-.9,1.5-.1V45.6l2.2.3-.1,1Z"/>
      <path class="cls-2" d="M135.4,25.7l3.3.1,2.8-.1.1,1.1-2.5.4V45.4l2.4.4-.1,1-3.6-.1-4.3.1-.1-1,2.7-.4V31.6l.4-3.5-7.6,18.6H127l-6-15.1-1.1-3.5V45.3l2.6.4-.2,1-3.2-.1-3.4.1-.1-1,2.4-.4V27.2l-2.5-.4.1-1.1,3.1.1,3.3-.1,6.3,15.9.2,1.7Z"/>
      <path class="cls-2" d="M145.1,39.1c0,3.4,1.8,5.9,5,5.9a8.2281,8.2281,0,0,0,3.8-1.3l.5,1.1a19.1713,19.1713,0,0,1-5.2,2.4c-3.6,0-6.9-2.6-6.9-7.3,0-4.4,2.7-6.8,6.8-7.7,4,0,5.3,2.5,5.3,5.6v1.3Zm6-1.5c0-2.3-.4-3.9-2.8-3.9-1.8,0-3,1.7-3.2,4.2Z"/>
      <path class="cls-2" d="M169,42.9a3.7221,3.7221,0,0,0,.5,2.2h1.7l.1,1.1-4,.8-.9-2.3-3.9,2.6c-3.8,0-6.2-2.9-6.2-7,0-4.9,3-7.4,7.3-8a9.61,9.61,0,0,1,2.6.8V27.4l-2.1.1-.1-1,3.6-.9,1.5-.1V42.9Zm-3.7.7.9-.7V35a3.7731,3.7731,0,0,0-3-1.2c-2.4,0-3.9,2.2-3.9,5.7,0,3.3,1.3,5.4,3.1,5.4A6.51,6.51,0,0,0,165.3,43.6Z"/>
      <path class="cls-2" d="M176.6,46.7l-3.4.1-.2-1,2.1-.3v-11l-2.1.2-.1-1.1,3.6-.9,1.5-.1V45.5l2.2.3-.1,1Zm-1.5-20.6,2.2-.1.8.1.1,1.7-.3,1.4-2.1.2-.8-.2-.2-1.7Z"/>
      <path class="cls-2" d="M189.3,34.3a2.3111,2.3111,0,0,0-1.7-.5c-2,0-3.6,2.3-3.6,5.5s1.7,5.6,4.7,5.6a6.86,6.86,0,0,0,3.4-1.3l.5,1.1a18.6484,18.6484,0,0,1-4.9,2.4c-3.8,0-6.7-2.5-6.7-7.1,0-4.7,3.5-7,7.1-7.9a7.0485,7.0485,0,0,1,4.1,1.5v3H190Z"/>
      <path class="cls-2" d="M200.4,32.2c3.8,0,4.7,1,4.7,4.8v5.9a3.304,3.304,0,0,0,.5,2.2h1.5l.1,1-3.9.8-.9-2.3-3.6,2.6c-2.6,0-4.4-1.4-4.4-3.8a4.7786,4.7786,0,0,1,1-2.8l6.8-2.2V36.9c0-1.8-.1-2.9-1.8-2.9a10.0809,10.0809,0,0,0-2.5.5l-.5,2.4h-2.6V34.6Zm1.9,7.4-4.4,1.8a2.7156,2.7156,0,0,0-.6,1.7c0,1.5.9,2.1,1.7,2.1a3.0545,3.0545,0,0,0,1.9-.8l1.3-.9V39.6Z"/>
      <path class="cls-2" d="M212,46.7l-3.4.1-.2-1,2.1-.3V27.4l-2.1.1-.1-1,3.6-.9,1.5-.1V45.6l2.2.3-.1,1Z"/>
      <path class="cls-2" d="M227.6,43.8a5.7253,5.7253,0,0,0,4.2,1.9c2.6,0,4.1-1.6,4.1-3.8,0-2-1.3-3.2-3.1-4l-3.6-1.6c-2.2-.9-3.9-2.3-3.9-5,0-3.3,3-5.2,7.2-6.1a9.6679,9.6679,0,0,1,5.5,1.7v4h-1.5l-.9-2.7a4.4371,4.4371,0,0,0-3.5-1.5c-2.4,0-3.8,1.3-3.8,3.3,0,1.6,1.2,2.7,2.8,3.4l3.4,1.6c2.4,1,4.4,2.5,4.4,5.6,0,2.8-1.9,5.5-7.6,6.7a9.5791,9.5791,0,0,1-6.2-2l-.7-4h2.1Z"/>
      <path class="cls-2" d="M249.3,34.3a2.3111,2.3111,0,0,0-1.7-.5c-2,0-3.6,2.3-3.6,5.5s1.7,5.6,4.7,5.6a6.86,6.86,0,0,0,3.4-1.3l.5,1.1a18.6484,18.6484,0,0,1-4.9,2.4c-3.8,0-6.7-2.5-6.7-7.1,0-4.7,3.4-7,7.1-7.9a7.0485,7.0485,0,0,1,4.1,1.5v3H250Z"/>
      <path class="cls-2" d="M258.8,45.4l1.7.3-.2,1-2.8-.1-3.5.1-.1-1,2.1-.3V27.3l-2.1.1-.1-1,3.6-.9,1.5-.1v9.7l4.4-2.8c3.8,0,4.5,1.4,4.5,5.2v8l2.2.3-.1,1-3.4-.1-2.8.1-.1-1,1.5-.3V36.9c0-1.6-.7-2.2-1.9-2.2A8.3,8.3,0,0,0,260,36l-.9.6v8.8Z"/>
      <path class="cls-2" d="M284.6,39.4c0,4.5-2.7,7-7.4,7.8-4,0-6.7-3.1-6.7-7.2,0-4.5,2.7-7,7.4-7.8C281.9,32.2,284.6,35.3,284.6,39.4ZM278,45.7c2.4,0,3.6-2.5,3.6-5.7,0-3.8-1.8-6.4-4.4-6.4-2.4,0-3.6,2.5-3.6,5.7C273.5,42.8,275.3,45.7,278,45.7Z"/>
      <path class="cls-2" d="M300.6,39.4c0,4.5-2.7,7-7.4,7.8-4,0-6.7-3.1-6.7-7.2,0-4.5,2.7-7,7.4-7.8C297.9,32.2,300.6,35.3,300.6,39.4ZM294,45.7c2.4,0,3.6-2.5,3.6-5.7,0-3.8-1.8-6.4-4.4-6.4-2.4,0-3.6,2.5-3.6,5.7C289.6,42.8,291.3,45.7,294,45.7Z"/>
      <path class="cls-2" d="M305.3,46.7l-3.5.1-.1-1,2.1-.3V27.4l-2.1.1-.1-1,3.6-.9,1.5-.1V45.6l2.2.3-.1,1Z"/>
    </g>
    <g>
      <path class="cls-1" d="M71.9,17.1l-1.9.1-.1-.7,1-.2V10.6c0-1-.5-1.5-1.3-1.5a4.184,4.184,0,0,0-2.1.9l-.6.4v5.9l1.1.2-.1.7L66,17.1l-2.1.1-.1-.7,1.2-.2V4l-.7.1L60.2,4V16.1l2.3.3v.7L59.3,17l-3.4.1-.1-.7,2.4-.3V4.1l-3,.1-.9,2.5h-.8V3.1H64.1l2.1-.2h.7V9.4l2.9-1.9c2.6,0,3,1,3,3.5v5.3l1.5.2-.1.7Z"/>
      <path class="cls-1" d="M77.1,12c0,2.3,1.2,3.9,3.3,3.9a5.6587,5.6587,0,0,0,2.5-.8l.3.8a12.4813,12.4813,0,0,1-3.5,1.6,4.545,4.545,0,0,1-4.6-4.9c0-3,1.8-4.5,4.5-5.1,2.6,0,3.5,1.7,3.5,3.8V12Zm4.1-1c0-1.5-.3-2.6-1.8-2.6-1.2,0-2,1.1-2.2,2.8Z"/>
      <path class="cls-1" d="M97.1,3.8l.1-.7,2.6.1,2.3-.1.1.7-1.7.3v8.2c0,2.6-1.1,4.3-5,5.3-3.9,0-5.3-2.1-5.3-5.3V4.1l-1.8-.3.1-.7,2.8.1L94,3.1l.1.7-1.7.3v8.4c0,2.5,1.1,3.9,3.3,3.9,2.1,0,3.2-1.4,3.2-4V4.1Z"/>
      <path class="cls-1" d="M104.9,17.1l-2.3.1-.1-.7,1.4-.2V9l-1.4.1-.1-.7,2.4-.6.9-.1.1,1.7,3-1.9c2.6,0,3,.9,3,3.3v5.6l1.5.2-.1.7-2.3-.1-1.9.1-.1-.7,1-.2V10.7c0-1-.5-1.5-1.3-1.5a3.8572,3.8572,0,0,0-2.1.9l-.6.4v5.9l1.1.2-.1.7Z"/>
      <path class="cls-1" d="M116.3,17.1l-2.3.1-.1-.7,1.4-.2V9l-1.4.1-.1-.7,2.4-.6,1-.1v8.6l1.5.2-.1.7Zm-1-13.8,1.4-.1.6.1.1,1.1-.2,1-1.4.1-.5-.1-.1-1.1Z"/>
      <path class="cls-1" d="M124.3,15.8l2.4-7.2-.9-.2.1-.7,1.8.1,1.7-.1.1.7-1.3.2-3.3,8.2-1.5.6-3.5-8.8-1.2-.2.1-.7,2.3.1,2.1-.1.1.7-1.3.2,2.2,5.9Z"/>
      <path class="cls-1" d="M131.4,12c0,2.3,1.2,3.9,3.3,3.9a5.6587,5.6587,0,0,0,2.5-.8l.3.8a12.4813,12.4813,0,0,1-3.5,1.6,4.545,4.545,0,0,1-4.6-4.9c0-3,1.8-4.5,4.5-5.1,2.6,0,3.5,1.7,3.5,3.8V12Zm4-1c0-1.5-.3-2.6-1.8-2.6-1.2,0-2,1.1-2.2,2.8Z"/>
      <path class="cls-1" d="M142,10.3l2.3-2.8h1.6v2h-1.5a4.6483,4.6483,0,0,0-1.9,1.4l-.4.5v4.8l2.1.2-.1.8-2.9-.1-2.2.1-.1-.7,1.4-.2V9l-1.4.1-.1-.7,2.4-.6.8-.1Z"/>
      <path class="cls-1" d="M152.2,8.8a3.4358,3.4358,0,0,0-1.5-.4c-.8,0-1.5.4-1.5,1.2,0,.6.5,1,1.4,1.5l1.5.8c1.3.7,1.9,1.4,1.9,2.6,0,1.8-1.5,2.5-3.8,3a6.6583,6.6583,0,0,1-3-.9l-.4-2.3h1.3l.7,1.7a2.7667,2.7667,0,0,0,1.6.5A1.4447,1.4447,0,0,0,152,15c0-.8-.4-1.1-1.5-1.7l-1.6-.8a2.6058,2.6058,0,0,1-1.7-2.3c0-1.4,1.3-2.2,3.6-2.7a5.4592,5.4592,0,0,1,2.8.9v2h-1.1Z"/>
      <path class="cls-1" d="M157.7,17.1l-2.3.1-.1-.7,1.4-.2V9l-1.4.1-.1-.7,2.4-.6,1-.1v8.6l1.5.2-.1.7Zm-1-13.8,1.4-.1.6.1.1,1.1-.2,1-1.4.1-.5-.1-.2-1.1Z"/>
      <path class="cls-1" d="M167.6,21.8v-2h1.7l2-3-.8.2-3.4-8.4h-3v6.1c0,.6.2,1.2,1.1,1.2a4.2639,4.2639,0,0,0,1.8-.6l.3.7-2.5,1.4c-2.2,0-2.5-.8-2.5-2.6v-6h-1.9V8.5l.7-.7h1.3V6.5l1.3-1.3h.5V7.7h6.3l.1.7-1.3.2,2.2,5.9.2,1.4,2.5-7.2-.9-.2.1-.7,1.8.1,1.7-.1.1.7-1.3.2-3.2,8.2-2.2,5h-2.7Z"/>
      <path class="cls-1" d="M189.9,12.2c0,3-1.8,4.7-4.9,5.2a4.4961,4.4961,0,0,1-4.5-4.8c0-3,1.8-4.7,4.9-5.2A4.4961,4.4961,0,0,1,189.9,12.2Zm-4.4,4.2c1.6,0,2.4-1.6,2.4-3.8,0-2.5-1.2-4.2-3-4.2-1.6,0-2.4,1.6-2.4,3.8C182.6,14.5,183.7,16.4,185.5,16.4Z"/>
      <path class="cls-1" d="M194.4,7.9h2.5v.9h-2.5v7.4l2.3.1-.1.8-3.1-.1-2.3.1-.1-.7,1.4-.2V8.8h-1.8V8.5l.6-.7h1.2V7.6a3.9279,3.9279,0,0,1,1.1-2.8l1.7-1.9h2.5V4.5h-2.6l-.4.5a3.8453,3.8453,0,0,0-.4,2.3v.6Z"/>
      <path class="cls-1" d="M212.2,17.1,209,17l-3.4.1-.1-.7,2.4-.3V4.1h-3L204,6.6h-.8V3.1l5.7.1,5.8-.1V6.6h-.8L213,4.1h-3V16.2l2.3.3Z"/>
      <path class="cls-1" d="M215.8,12c0,2.3,1.2,3.9,3.3,3.9a5.6587,5.6587,0,0,0,2.5-.8l.3.8a12.4813,12.4813,0,0,1-3.5,1.6,4.545,4.545,0,0,1-4.6-4.9c0-3,1.8-4.5,4.5-5.1,2.6,0,3.5,1.7,3.5,3.8V12Zm4-1c0-1.5-.3-2.6-1.8-2.6-1.2,0-2,1.1-2.2,2.8Z"/>
      <path class="cls-1" d="M226.5,16.4l-.1.7-1.6-.1-2.1.1-.1-.7,1.4-.2,3-3.6-2.9-4-1.2-.2.1-.7,2.3.1,1.9-.1.1.7-.8.2,1.5,2.2.2.5,1.9-2.7-1-.2.1-.7,1.6.1,2.1-.1.1.7-1.4.2L229,11.8l3.1,4.4,1.2.2-.1.7-2.3-.1-1.9.1-.1-.7.8-.2-1.8-2.6-.2-.5-2.1,3Z"/>
      <path class="cls-1" d="M237.8,7.4c2.5,0,3.2.6,3.2,3.2v3.9a2.3734,2.3734,0,0,0,.3,1.5h1l.1.7-2.6.5-.6-1.5-2.4,1.7a2.6079,2.6079,0,0,1-2.9-2.6,3.1151,3.1151,0,0,1,.7-1.8l4.5-1.5v-1c0-1.2-.1-1.9-1.2-1.9a4.1927,4.1927,0,0,0-1.6.4l-.3,1.6h-1.7V9Zm1.3,4.9-2.9,1.2a1.5038,1.5038,0,0,0-.4,1.1c0,1,.6,1.4,1.2,1.4a2.2258,2.2258,0,0,0,1.3-.5l.8-.6V12.3Z"/>
      <path class="cls-1" d="M248.6,8.8a3.4358,3.4358,0,0,0-1.5-.4c-.8,0-1.5.4-1.5,1.2,0,.6.5,1,1.4,1.5l1.5.8c1.3.7,1.9,1.4,1.9,2.6,0,1.8-1.5,2.5-3.8,3a6.6583,6.6583,0,0,1-3-.9l-.4-2.3h1.3l.7,1.7a2.7667,2.7667,0,0,0,1.6.5,1.4447,1.4447,0,0,0,1.6-1.5c0-.8-.4-1.1-1.5-1.7l-1.6-.8a2.6058,2.6058,0,0,1-1.7-2.3c0-1.4,1.3-2.2,3.6-2.7a5.4592,5.4592,0,0,1,2.8.9v2h-1.1Z"/>
      <path class="cls-1" d="M260.4,7.4c2.5,0,3.2.6,3.2,3.2v3.9a2.3735,2.3735,0,0,0,.3,1.5h1l.1.7-2.6.5-.6-1.5-2.4,1.7a2.6079,2.6079,0,0,1-2.9-2.6,3.115,3.115,0,0,1,.7-1.8l4.5-1.5v-1c0-1.2-.1-1.9-1.2-1.9a4.1926,4.1926,0,0,0-1.6.4l-.3,1.6h-1.7V9Zm1.3,4.9-2.9,1.2a1.5039,1.5039,0,0,0-.4,1.1c0,1,.6,1.4,1.2,1.4a2.2257,2.2257,0,0,0,1.3-.5l.8-.6Z"/>
      <path class="cls-1" d="M264.9,8.9V8.6l.7-.7h1.3V6.6l1.3-1.3h.5V8h3v.9h-3v5.9c0,.6.2,1.2,1.1,1.2a3.32,3.32,0,0,0,1.6-.5l.3.7-2.3,1.3c-2.2,0-2.5-.8-2.5-2.6v-6Z"/>
      <path class="cls-1" d="M280.2,12.4l-1.3,3.7,1.7.3-.1.7-2.4-.1-2.1.1-.1-.7,1.6-.2,5-13,1.2-.3,5.2,13.3,1.6.2-.1.7-2.8-.1-2.6.1-.1-.7,1.7-.3-1.4-3.7Zm2.7-6.2-.1-1.1-2.2,6.4h4.3Z"/>
      <path class="cls-1" d="M298.9,14.5a3.9621,3.9621,0,0,0,.2,1.5h1l.1.7-2.6.5-.6-1.6-2.9,1.8c-2.6,0-3.1-.9-3.1-3.3V8.9l-1.4.1-.1-.8,2.4-.5,1-.1v6.7c0,1,.4,1.5,1.4,1.5a5.2228,5.2228,0,0,0,2.2-1l.4-.3V8.9l-1.2.1-.1-.8,2.2-.5,1-.1v6.9Z"/>
      <path class="cls-1" d="M306.5,8.8a3.4358,3.4358,0,0,0-1.5-.4c-.8,0-1.5.4-1.5,1.2,0,.6.5,1,1.4,1.5l1.5.8c1.3.7,1.9,1.4,1.9,2.6,0,1.8-1.5,2.5-3.8,3a6.6582,6.6582,0,0,1-3-.9l-.4-2.3h1.3l.7,1.7a2.7667,2.7667,0,0,0,1.6.5,1.4447,1.4447,0,0,0,1.6-1.5c0-.8-.4-1.1-1.5-1.7l-1.6-.8a2.6058,2.6058,0,0,1-1.7-2.3c0-1.4,1.3-2.2,3.6-2.7a5.459,5.459,0,0,1,2.8.9v2h-1.1Z"/>
      <path class="cls-1" d="M308.9,8.9V8.6l.7-.7h1.3V6.6l1.3-1.3h.5V8h3v.9h-3v5.9c0,.6.2,1.2,1.1,1.2a3.32,3.32,0,0,0,1.6-.5l.3.7-2.3,1.3c-2.2,0-2.5-.8-2.5-2.6v-6Z"/>
      <path class="cls-1" d="M319.3,17.1l-2.3.1-.1-.7,1.4-.2V9l-1.4.1-.1-.7,2.4-.6,1-.1v8.6l1.5.2-.1.7Zm-1-13.8,1.4-.1.6.1.1,1.1-.2,1-1.4.1-.5-.1-.1-1.1Z"/>
      <path class="cls-1" d="M325,17.1l-2.3.1-.1-.7,1.4-.2V9l-1.4.1-.1-.7,2.4-.6.9-.1.1,1.7,3-1.9c2.6,0,3,.9,3,3.3v5.6l1.5.2-.1.7-2.3-.1-1.9.1-.1-.7,1-.2V10.7c0-1-.5-1.5-1.3-1.5a3.8572,3.8572,0,0,0-2.1.9l-.6.4v5.9l1.1.2-.1.7Z"/>
    </g>
  </g>
</svg>
