<?xml version="1.0" encoding="UTF-8" standalone="no"?>
<svg width="460px" height="116px" viewBox="0 0 460 116" version="1.1" xmlns="http://www.w3.org/2000/svg" xmlns:xlink="http://www.w3.org/1999/xlink" xmlns:sketch="http://www.bohemiancoding.com/sketch/ns">
    <!-- Generator: Sketch 3.3.1 (12002) - http://www.bohemiancoding.com/sketch -->
    <title>logo-beta-purple</title>
    <desc>Created with Sketch.</desc>
    <defs></defs>
    <g id="Page-1" stroke="none" stroke-width="1" fill="none" fill-rule="evenodd" sketch:type="MSPage">
        <path d="M0,91.543669 L12.2064354,91.543669 L12.2064354,69.0530715 C12.2064354,66.7463435 12.3986628,64.6318429 12.9753448,62.7095696 C14.8015044,56.7505224 19.799415,52.5215211 26.2390305,52.5215211 C32.4864187,52.5215211 34.0242374,56.558295 34.0242374,62.5173422 L34.0242374,91.543669 L46.1345591,91.543669 L46.1345591,60.018387 C46.1345591,47.0430422 39.9832846,41.372336 29.1224405,41.372336 C20.5683243,41.372336 14.6092771,46.3702466 12.2064354,51.0798161 L12.0142081,51.0798161 C12.0142081,51.0798161 12.2064354,49.3497702 12.2064354,46.9469285 L12.2064354,23.302967 L0,23.302967 L0,91.543669 Z M55.2653573,67.0346845 C55.2653573,82.1245299 67.2795654,92.697033 82.2732971,92.697033 C97.1709152,92.697033 109.185123,82.1245299 109.185123,67.0346845 C109.185123,52.0409528 97.1709152,41.372336 82.1771835,41.372336 C67.2795654,41.372336 55.2653573,52.0409528 55.2653573,67.0346845 L55.2653573,67.0346845 Z M67.6640201,67.0346845 C67.6640201,58 74.2958629,51.7526118 82.2732971,51.7526118 C90.1546176,51.7526118 96.7864605,58 96.7864605,67.0346845 C96.7864605,76.1654827 90.1546176,82.3167572 82.2732971,82.3167572 C74.2958629,82.3167572 67.6640201,76.1654827 67.6640201,67.0346845 L67.6640201,67.0346845 Z M118.988717,91.543669 L131.195153,91.543669 L131.195153,70.0142081 C131.195153,67.8035938 131.291266,65.5929795 131.771835,63.7668199 C133.309653,57.5194317 137.442541,52.5215211 143.786043,52.5215211 C149.552863,52.5215211 150.417885,57.0388634 150.417885,62.3251149 L150.417885,91.543669 L162.624321,91.543669 L162.624321,70.0142081 C162.624321,67.7074802 162.720435,65.5929795 163.201003,63.6707062 C164.642708,57.5194317 168.775595,52.5215211 175.022984,52.5215211 C180.69369,52.5215211 181.75094,56.7505224 181.75094,62.3251149 L181.75094,91.543669 L193.957376,91.543669 L193.957376,60.018387 C193.957376,47.1391559 188.094442,41.372336 177.906394,41.372336 C170.2173,41.372336 163.873799,46.1780192 161.182616,51.4642708 L160.990389,51.4642708 C158.972002,44.8324279 154.166318,41.372336 146.669453,41.372336 C138.980359,41.372336 133.117426,46.7547012 130.714584,51.5603845 L130.522357,51.5603845 C130.522357,51.5603845 130.714584,50.0225658 130.714584,48.1964062 L130.714584,42.5257 L118.988717,42.5257 L118.988717,91.543669 Z M203.280401,67.0346845 C203.280401,80.9711659 213.372336,92.697033 229.615545,92.697033 C241.821981,92.697033 249.318847,85.6807355 249.318847,85.6807355 L244.609277,76.934392 C244.609277,76.934392 238.361889,82.3167572 230.480568,82.3167572 C223.17593,82.3167572 216.544087,77.8955286 215.775178,69.3414125 L249.607188,69.3414125 C249.607188,69.3414125 249.895529,66.0735478 249.895529,64.6318429 C249.895529,51.6564981 242.302549,41.372336 228.17384,41.372336 C213.564563,41.372336 203.280401,51.9448391 203.280401,67.0346845 L203.280401,67.0346845 Z M216.159632,60.9795236 C217.312996,54.6360217 221.638111,50.7914751 227.885499,50.7914751 C233.267865,50.7914751 237.400752,54.3476807 237.59298,60.9795236 L216.159632,60.9795236 Z M259.987463,91.543669 L271.521103,91.543669 L271.521103,88.7563728 C271.521103,86.8340995 271.328876,85.3923945 271.328876,85.3923945 L271.521103,85.3923945 C271.521103,85.3923945 275.942332,92.697033 286.13038,92.697033 C299.105725,92.697033 308.620978,82.6050982 308.620978,67.0346845 C308.620978,51.8487254 300.162975,41.372336 286.89929,41.372336 C276.519014,41.372336 272.193899,48.4847472 272.193899,48.4847472 L272.001672,48.4847472 C272.001672,48.4847472 272.193899,46.7547012 272.193899,44.3518596 L272.193899,23.302967 L259.987463,23.302967 L259.987463,91.543669 Z M271.809444,67.3230255 C271.809444,56.4621814 277.768491,51.8487254 284.111993,51.8487254 C291.320518,51.8487254 296.318429,57.9038863 296.318429,67.2269118 C296.318429,76.934392 290.743836,82.4128709 284.01588,82.4128709 C275.846218,82.4128709 271.809444,74.916005 271.809444,67.3230255 L271.809444,67.3230255 Z M314.580025,77.4149603 C314.580025,87.2185541 322.461346,92.697033 331.207689,92.697033 C342.356874,92.697033 346.201421,84.0468032 346.105307,84.0468032 L346.297534,84.0468032 C346.297534,84.0468032 346.105307,85.5846218 346.105307,87.5068951 L346.105307,91.543669 L357.350606,91.543669 L357.350606,60.8834099 C357.350606,48.4847472 349.85374,41.372336 336.974509,41.372336 C325.344756,41.372336 317.751776,47.4274969 317.751776,47.4274969 L322.365232,56.1738404 C322.365232,56.1738404 328.804847,51.4642708 335.821145,51.4642708 C341.20351,51.4642708 345.240284,53.6748851 345.240284,60.1145006 L345.240284,60.7872963 L343.606352,60.7872963 C335.628918,60.7872963 314.580025,61.8445466 314.580025,77.4149603 L314.580025,77.4149603 Z M326.882574,76.8382783 C326.882574,70.0142081 336.974509,69.1491851 343.221897,69.1491851 L345.336398,69.1491851 L345.336398,70.3025491 C345.336398,76.2615963 340.722942,83.1817802 334.283326,83.1817802 C329.285416,83.1817802 326.882574,80.1061429 326.882574,76.8382783 L326.882574,76.8382783 Z M365.904722,85.4885081 C365.904722,85.4885081 372.728792,92.697033 384.935228,92.697033 C396.564981,92.697033 403.677392,86.1613038 403.677392,77.9916423 C403.677392,62.2290013 379.841204,63.0940242 379.841204,56.1738404 C379.841204,53.0982031 382.916841,51.7526118 386.088592,51.7526118 C393.585458,51.7526118 398.1028,55.981613 398.1028,55.981613 L402.620142,46.9469285 C402.620142,46.9469285 397.237777,41.372336 386.184705,41.372336 C375.612202,41.372336 367.442541,46.6585875 367.442541,55.7893857 C367.442541,71.5520267 391.27873,70.5908901 391.27873,77.8955286 C391.27873,80.7789386 388.299206,82.3167572 384.839114,82.3167572 C376.86168,82.3167572 371.479315,76.934392 371.479315,76.934392 L365.904722,85.4885081 Z M410.020894,67.0346845 C410.020894,80.9711659 420.112829,92.697033 436.356038,92.697033 C448.562474,92.697033 456.05934,85.6807355 456.05934,85.6807355 L451.34977,76.934392 C451.34977,76.934392 445.102382,82.3167572 437.221061,82.3167572 C429.916423,82.3167572 423.28458,77.8955286 422.515671,69.3414125 L456.347681,69.3414125 C456.347681,69.3414125 456.636022,66.0735478 456.636022,64.6318429 C456.636022,51.6564981 449.043042,41.372336 434.914333,41.372336 C420.305056,41.372336 410.020894,51.9448391 410.020894,67.0346845 L410.020894,67.0346845 Z M422.900125,60.9795236 C424.053489,54.6360217 428.378604,50.7914751 434.625992,50.7914751 C440.008358,50.7914751 444.141245,54.3476807 444.333473,60.9795236 L422.900125,60.9795236 Z" id="homebase" fill="#fff" sketch:type="MSShapeGroup"></path>
    </g>
</svg>
